<?xml version="1.0" encoding="iso-8859-1"?>
<!-- Generator: Adobe Illustrator 14.0.0, SVG Export Plug-In . SVG Version: 6.00 Build 43363)  -->
<!DOCTYPE svg PUBLIC "-//W3C//DTD SVG 1.1//EN" "http://www.w3.org/Graphics/SVG/1.1/DTD/svg11.dtd">
<svg version="1.1" xmlns="http://www.w3.org/2000/svg" xmlns:xlink="http://www.w3.org/1999/xlink" x="0px" y="0px" width="512px"
	 height="512px" viewBox="0 0 512 512" style="enable-background:new 0 0 512 512;" xml:space="preserve">
<g id="computer-screen">
	<path style="fill:#FFFFFF;" d="M268.8,345.6c0,7.075-5.725,12.801-12.8,12.801c-7.08,0-12.8-5.726-12.8-12.801
		c0-7.074,5.72-12.8,12.8-12.8C263.075,332.8,268.8,338.525,268.8,345.6z M460.8,307.199H51.2V76.8h409.6V307.199z M435.199,102.4
		H76.8V281.6h358.399V102.4z M512,51.199V384c0,14.141-11.465,25.6-25.6,25.6H307.199v51.2h38.4c7.07,0,12.801,5.726,12.801,12.8
		c0,7.075-5.73,12.801-12.801,12.801H166.4c-7.075,0-12.8-5.726-12.8-12.801c0-7.074,5.725-12.8,12.8-12.8h38.4v-51.2H25.6
		C11.46,409.6,0,398.141,0,384V51.199c0-14.135,11.46-25.6,25.6-25.6h460.8C500.535,25.6,512,37.064,512,51.199z M281.6,409.6h-51.2
		v51.2h51.2V409.6z M486.4,51.199H25.6V384h460.8V51.199z"/>
</g>
<g id="Layer_1">
</g>
</svg>
