<?xml version="1.0" encoding="iso-8859-1"?>
<!-- Generator: Adobe Illustrator 14.0.0, SVG Export Plug-In . SVG Version: 6.00 Build 43363)  -->
<!DOCTYPE svg PUBLIC "-//W3C//DTD SVG 1.1//EN" "http://www.w3.org/Graphics/SVG/1.1/DTD/svg11.dtd">
<svg version="1.1" xmlns="http://www.w3.org/2000/svg" xmlns:xlink="http://www.w3.org/1999/xlink" x="0px" y="0px" width="512px"
	 height="512px" viewBox="0 0 512 512" style="enable-background:new 0 0 512 512;" xml:space="preserve">
<g id="id-card">
	<path d="M486.4,76.8H25.6C11.46,76.8,0,88.255,0,102.399v307.2C0,423.75,11.46,435.2,25.6,435.2h460.8
		c14.14,0,25.6-11.45,25.6-25.601v-307.2C512,88.255,500.54,76.8,486.4,76.8z M486.4,409.6H25.6v-307.2h460.8V409.6z
		 M230.41,358.399L230.4,307.2c0-28.976-16.24-53.896-39.935-66.976c8.855-9.2,14.355-21.649,14.355-35.425
		c0-28.275-22.935-51.2-51.205-51.2c-28.275,0-51.205,22.925-51.205,51.2c0,13.775,5.5,26.205,14.34,35.4
		c-23.7,13.074-39.95,38-39.95,67l0.01,51.199H230.41z M153.615,179.2c14.11,0,25.6,11.475,25.6,25.6s-11.49,25.6-25.6,25.6
		c-14.115,0-25.605-11.475-25.605-25.6S139.5,179.2,153.615,179.2z M153.6,256c28.235,0,51.2,22.975,51.2,51.2l0.02,25.6H102.41
		l-0.01-25.6C102.4,278.975,125.36,256,153.6,256z M435.21,332.8h-153.6v-25.6h153.6V332.8z M435.21,281.6h-153.6V256h153.6V281.6z
		 M384.016,230.399H281.61v-25.6h102.405V230.399z"/>
</g>
<g id="Layer_1">
</g>
</svg>
