<?xml version="1.0" encoding="iso-8859-1"?>
<!-- Generator: Adobe Illustrator 14.0.0, SVG Export Plug-In . SVG Version: 6.00 Build 43363)  -->
<!DOCTYPE svg PUBLIC "-//W3C//DTD SVG 1.1//EN" "http://www.w3.org/Graphics/SVG/1.1/DTD/svg11.dtd">
<svg version="1.1" xmlns="http://www.w3.org/2000/svg" xmlns:xlink="http://www.w3.org/1999/xlink" x="0px" y="0px" width="512px"
	 height="512px" viewBox="0 0 512 512" style="enable-background:new 0 0 512 512;" xml:space="preserve">
<g id="resume">
	<path style="fill:#FFFFFF;" d="M307.2,0h-256v512h409.6V153.615L307.2,0z M320.005,49l91.765,91.805h-91.765V49z M435.197,486.4
		H76.803V25.6h217.6v140.805h140.795V486.4z M128.002,313.595H384v38.41H128.002V313.595z M128.002,390.385H281.6v38.425H128.002
		V390.385z M261.35,187.494c12.458-11.68,20.25-28.279,20.25-46.689c0-35.35-28.652-64.016-63.997-64.016
		c-35.35,0-64,28.666-64,64.016c0,18.41,7.795,35.01,20.248,46.689c-27.353,11.551-45.848,34.91-45.848,68.5v25.601H307.2v-25.601
		C307.2,222.404,288.707,199.045,261.35,187.494z M217.603,102.395c21.17,0,38.4,17.221,38.4,38.41
		c0,21.16-17.23,38.391-38.4,38.391c-21.183,0-38.402-17.23-38.402-38.391C179.2,119.615,196.42,102.395,217.603,102.395z
		 M153.603,255.994c0-37.744,33.045-51.194,64-51.194c30.947,0,63.997,13.45,63.997,51.194H153.603z"/>
</g>
<g id="Layer_1">
</g>
</svg>
